<svg width="593" height="522" viewBox="0 0 593 522" fill="none" xmlns="http://www.w3.org/2000/svg">
<path d="M484.2 463.148H100.77C56.3917 463.148 20.4061 427.163 20.4061 382.784V145.733C20.4061 101.355 56.3917 65.3695 100.77 65.3695H484.2C528.578 65.3695 564.564 101.355 564.564 145.733V382.764C564.585 427.163 528.599 463.148 484.2 463.148Z" fill="#FFD378"/>
<path d="M564.585 145.733C564.585 101.355 528.599 65.3695 484.221 65.3695H448.36L20.4061 342.321V382.764C20.4061 427.142 56.3917 463.127 100.77 463.127H179.218L564.585 213.727V145.733Z" fill="url(#paint0_linear_152_7932)"/>
<path d="M523.955 321.684C519.957 331.66 521.019 340.718 520.436 350.09C519.853 359.461 519.27 372.643 516.042 379.078C512.814 385.513 508.42 393.135 505.505 404.256C502.568 415.376 482.576 452.236 482.576 452.236L446.236 391.573C446.236 391.573 462.459 371.331 462.459 362.605C462.459 353.88 463.917 348.903 469.186 340.698C474.454 332.493 472.997 331.909 475.037 322.247C477.078 312.584 494.072 305.253 494.072 305.253L523.955 321.684Z" fill="#4E824E"/>
<path d="M498.778 296.777C493.801 300.88 489.699 311.417 488.824 326.057C487.949 340.697 489.699 350.652 490.136 360.606C490.573 370.56 487.345 389.761 484.138 396.134C480.91 402.485 479.348 415.334 477.703 417.729" stroke="#346134" stroke-width="0.5" stroke-miterlimit="10"/>
<path d="M208.537 359.711C208.537 359.711 222.969 387.012 207.371 463.149H282.549C282.549 463.149 286.215 414.647 279.905 385.534C272.866 353.026 250.042 328.765 250.042 328.765L208.537 359.711Z" fill="#4E824E"/>
<path d="M232.32 344.987C232.32 344.987 245.586 363.584 248.856 386.72C252.125 409.857 246.648 446.759 241.921 459.046" stroke="#346134" stroke-width="0.5" stroke-miterlimit="10"/>
<path d="M278.364 379.286C278.364 379.286 265.494 365.312 248.854 365.021C232.194 364.729 230.528 370.727 212.619 368.02C194.709 365.312 194.126 360.335 180.653 357.69C167.179 355.046 162.202 360.023 147.853 357.69C133.505 355.358 133.109 344.071 122.072 335.97C109.473 326.703 98.6436 326.39 89.8554 326.661C103.329 313.77 122.072 307.585 137.003 308.918C151.935 310.251 154.871 315.124 169.511 315.041C184.151 314.937 189.232 309.876 202.644 310.938C216.055 312 214.014 313.958 228.363 315.041C242.732 316.124 271.221 334.97 278.364 379.286Z" fill="#6DBD6D"/>
<path d="M95.623 324.953C107.431 318.768 125.882 318.539 142.583 324.953C159.285 331.367 161.034 334.595 177.424 334.304C193.813 334.012 203.684 330.701 223.489 334.991C243.314 339.281 262.869 342.509 272.698 358.023" stroke="#346134" stroke-width="0.5" stroke-miterlimit="10"/>
<path d="M283.485 442.177C251.165 431.057 214.471 408.087 214.471 408.087C213.951 422.581 211.972 440.72 207.391 463.148H282.569C282.548 463.148 283.215 454.423 283.485 442.177Z" fill="#346134"/>
<path d="M559.004 360.939C549.05 366.499 541.428 368.561 533.223 370.602C525.018 372.643 518.042 378.224 510.69 388.47C503.339 398.716 498.362 397.258 484.597 407.504C470.831 417.75 465.563 446.447 465.563 446.447L480.244 463.148H484.18C495.988 463.148 507.171 460.566 517.25 455.984C524.227 445.697 525.205 439.345 533.202 432.994C541.699 426.267 558.984 414.834 563.065 402.235C567.168 389.636 568.334 380.265 573.603 374.704C578.872 369.144 585.619 353.026 585.619 353.026C585.619 353.026 568.98 355.379 559.004 360.939Z" fill="#6DBD6D"/>
<path d="M578.643 357.711C578.643 357.711 564.586 362.98 557.255 372.351C549.925 381.722 541.158 390.386 531.786 393.239C522.415 396.092 516.314 400.173 510.732 412.189C505.151 424.205 502.215 430.932 496.363 437.075C490.511 443.219 484.347 451.715 482.598 455.526" stroke="#346134" stroke-width="0.5" stroke-miterlimit="10"/>
<path d="M592.802 350.881C592.802 350.881 590.219 339.927 588.658 333.617C589.449 324.912 583.41 320.622 580.286 315.249C577.141 309.856 578.37 306.586 573.33 297.361C568.291 288.114 562.626 286.532 554.171 279.493C545.716 272.454 539.386 268.56 523.725 272.829C508.065 277.119 502.754 285.074 498.631 289.447C488.468 291.925 485.115 306.482 481.367 308.731C477.618 310.98 473.724 323.829 473.828 329.306C479.035 315.874 488.406 312.875 498.36 316.27C508.335 319.664 518.602 324.746 523.704 329.848C528.806 334.95 532.138 339.281 542.051 337.511C551.964 335.762 554.192 334.762 559.815 338.428C565.417 342.093 564.813 344.925 572.206 344.55C579.64 344.175 589.803 347.195 592.802 350.881Z" fill="#6DBD6D"/>
<path d="M586.657 333.909C575.119 329.036 570.934 328.244 563.083 318.373C555.232 308.502 538.655 296.798 530.012 293.217C521.37 289.635 510.25 287.781 498.629 289.447" stroke="#346134" stroke-width="0.5" stroke-miterlimit="10"/>
<path d="M303.646 463.149H358.999L344.797 421.332L303.646 463.149Z" fill="#4E824E"/>
<path d="M346.983 443.219C340.257 452.299 337.112 459.921 327.116 466.064C317.12 472.208 307.228 470.75 302.647 479.246C298.065 487.743 292.797 500.03 284.592 506.486C276.387 512.92 236.861 514.982 231.009 522C227.781 508.818 233.341 502.966 237.444 495.053C241.546 487.139 244.462 482.599 244.462 482.599C244.462 482.599 244.462 463.711 253.542 452.299C262.621 440.887 268.473 441.47 273.742 426.517C279.011 411.586 288.09 399.153 301.564 393.218C315.038 387.283 342.569 399.278 342.569 399.278L346.983 443.219Z" fill="#6DBD6D"/>
<path d="M234.818 513.212C238.046 503.258 249.458 492.72 256.206 488.618C262.932 484.515 265.223 476.227 273.782 471.333C277.885 469.001 276.927 455.235 288.526 442.345C300.126 429.454 305.415 428.579 309.205 425.06C313.016 421.541 322.513 399.528 340.026 398.237" stroke="#346134" stroke-width="0.5" stroke-miterlimit="10"/>
<path d="M193.567 463.149H118.889C118.889 463.149 120.825 441.137 107.935 423.206C95.0439 405.276 86.464 409.17 73.1776 391.594C59.8913 374.018 57.5589 377.433 41.1487 359.711C24.7386 342.009 24.3638 316.624 10.3069 316.624C24.3638 307.253 49.7495 310.168 59.4956 320.622C69.2417 331.076 71.5949 338.094 93.8569 347.07C116.119 356.046 120.596 365.812 129.676 373.622C138.756 381.431 153.208 388.845 164.912 402.902C176.657 416.959 197.461 440.574 193.567 463.149Z" fill="#6DBD6D"/>
<path d="M193.421 463.148L193.921 454.527C192.317 434.743 175.157 415.188 164.932 402.922C158.664 395.405 151.625 389.803 145.044 385.013C117.347 374.871 72.0109 374.475 51.3108 369.811C59.4325 377.058 63.2435 378.495 73.1562 391.614C86.4426 409.191 95.0225 405.276 107.913 423.227C120.804 441.157 118.867 463.169 118.867 463.169H193.421V463.148Z" fill="#4E824E"/>
<path d="M193.42 463.149L193.92 454.527C192.941 442.345 186.048 430.245 178.51 419.895L112.432 430.766C120.304 446.78 118.888 463.17 118.888 463.17H193.42V463.149Z" fill="#346134"/>
<path d="M10.307 316.624C29.3619 311.022 39.2121 320.247 46.2302 330.347C53.2482 340.448 54.9767 345.029 62.6403 351.86C69.0128 357.545 79.0504 362.689 98.1678 370.498C117.306 378.307 123.553 388.845 132.133 404.068C140.713 419.291 160.789 439.242 160.081 463.128" stroke="#346134" stroke-width="0.5" stroke-miterlimit="10"/>
<path d="M160.185 463.148H243.547C239.549 454.089 232.76 441.719 224.013 436.784C209.457 428.579 169.743 419.208 133.133 417.458C150.647 420.582 157.623 447.738 160.185 463.148Z" fill="#4E824E"/>
<path d="M199.292 461.712C191.67 445.78 177.654 429.183 177.654 429.183" stroke="#346134" stroke-width="0.5" stroke-miterlimit="10"/>
<path d="M236.092 449.216C229.782 437.867 226.47 434.556 219.827 428.683C213.184 422.81 203.23 402.922 177.657 401.735C157.935 391.781 141.921 387.283 130.8 389.053C119.68 390.802 112.641 395.301 102.291 395.884C91.9408 396.467 82.5696 394.322 72.8026 402.714C63.0357 411.107 64.2227 413.502 58.9332 418.937C53.6644 424.372 45.6468 436.492 44.4806 451.528C53.0605 448.009 60.495 440.408 72.1987 439.824C83.9024 439.241 82.5487 440.803 100.125 440.408C117.701 440.012 123.366 435.534 134.486 435.534C145.607 435.534 152.438 435.93 167.681 439.241C182.905 442.552 188.965 439.637 203.021 439.429C217.078 439.22 224.638 434.785 236.092 449.216Z" fill="#6DBD6D"/>
<path d="M177.656 401.736C162.432 399.195 154.227 402.131 146.022 407.796C137.817 413.46 122.594 416.979 105.601 418.333C88.6078 419.708 63.6177 417.458 48.2072 445.572" stroke="#346134" stroke-width="0.5" stroke-miterlimit="10"/>
<path d="M117.595 145.734C115.304 142.194 116.324 137.487 119.844 135.196L233.944 61.3508C237.484 59.06 242.191 60.0805 244.481 63.5999C246.772 67.1401 245.752 71.8466 242.232 74.1373L128.132 147.983C124.592 150.274 119.885 149.253 117.595 145.734ZM108.702 151.481C106.474 148.025 101.872 147.046 98.4148 149.274C94.9579 151.502 93.9791 156.105 96.2074 159.562C98.4356 163.019 103.038 163.997 106.495 161.769C109.952 159.541 110.931 154.938 108.702 151.481Z" fill="url(#paint1_linear_152_7932)"/>
<path d="M135.965 177.992C133.674 174.451 134.695 169.745 138.214 167.454L252.314 93.6086C255.855 91.3178 260.561 92.3382 262.852 95.8577C265.143 99.3979 264.122 104.104 260.603 106.395L146.502 180.241C142.962 182.531 138.256 181.532 135.965 177.992Z" fill="url(#paint2_linear_152_7932)"/>
<path d="M240.777 61.7879L336.093 0L507.816 171.577L386.136 250.442L240.777 61.7879Z" fill="url(#paint3_linear_152_7932)"/>
<path d="M507.815 0H336.092V171.723H507.815V0Z" fill="#4881E8"/>
<path d="M424.763 28.4468H424.493H421.598H404.209V49.0219H424.784V28.4468H424.763ZM421.869 46.1064H407.104V31.3415H421.598H421.869V46.1064Z" fill="#FFFAFC"/>
<path d="M418.828 34.3613H410.123V43.0662H418.828V34.3613Z" fill="#FFFAFC"/>
<path d="M470.602 28.4468V49.0219H491.177V28.4468H470.602ZM488.261 46.1064H473.497V31.3415H488.261V46.1064Z" fill="#FFFAFC"/>
<path d="M485.24 34.3613H476.535V43.0662H485.24V34.3613Z" fill="#FFFAFC"/>
<path d="M404.189 115.412H424.765V94.8372H404.189V115.412ZM407.105 97.7526H421.87V112.518H407.105V97.7526Z" fill="#FFFAFC"/>
<path d="M418.828 100.772H410.123V109.477H418.828V100.772Z" fill="#FFFAFC"/>
<path d="M470.602 115.412H491.177V94.8372H470.602V115.412ZM473.497 97.7526H488.261V112.518H473.497V97.7526Z" fill="#FFFAFC"/>
<path d="M485.24 100.772H476.535V109.477H485.24V100.772Z" fill="#FFFAFC"/>
<path d="M430.285 31.3415V28.4468H427.391V31.3415V34.2361H430.285V31.3415Z" fill="#FFFAFC"/>
<path d="M438.988 31.3415H441.883V34.2361H444.777H447.672V37.1308H444.777V40.0463H441.883V42.941H444.777H447.672V40.0463H450.588V37.1308V34.2361V31.3415V28.4468H447.672V31.3415H444.777V28.4468H441.883H438.988H436.093H433.178V31.3415H436.093V34.2361H438.988V31.3415Z" fill="#FFFAFC"/>
<path d="M465.08 34.2361V37.1308H467.975V34.2361V31.3415V28.4468H465.08V31.3415H462.186V34.2361H465.08Z" fill="#FFFAFC"/>
<path d="M436.072 34.2362H433.178V37.1309H436.072V34.2362Z" fill="#FFFAFC"/>
<path d="M441.885 34.2362H438.99V37.1309H441.885V34.2362Z" fill="#FFFAFC"/>
<path d="M462.186 40.0461V42.9408H465.08H467.975V40.0461H465.08V37.1306H462.186V40.0461Z" fill="#FFFAFC"/>
<path d="M438.988 40.0461V37.1306H436.093V40.0461V42.9408V45.8355H433.178V48.7302H436.093H438.988V51.6457V54.5403V57.435H441.883H444.777V54.5403H441.883V51.6457V48.7302V45.8355V42.9408H438.988V40.0461Z" fill="#FFFAFC"/>
<path d="M433.18 42.9408V40.0461V37.1306H430.285H427.391V40.0461H430.285V42.9408V45.8355H433.18V42.9408Z" fill="#FFFAFC"/>
<path d="M447.672 45.8359H444.777V48.7306H447.672V45.8359Z" fill="#FFFAFC"/>
<path d="M456.378 69.0351H453.483V66.1404H450.588H447.694V69.0351H450.588V71.9297H447.694H444.799V69.0351H441.904V71.9297H439.01V74.8244V77.7191H441.904V74.8244H444.799H447.694V77.7191V80.6138V83.5084H450.588H453.483H456.378V86.4031H453.483V89.2978H456.378V92.1925V95.0871H453.483H450.588H447.694V97.9818H450.588V100.876H453.483V97.9818H456.378V100.876H453.483V103.771H456.378H459.272V100.876V97.9818H462.167V95.0871H459.272V92.1925H462.167H465.062V89.2978H462.167H459.272V86.4031V83.5084H462.167V80.6138H459.272V77.7191V74.8244H462.167V71.9297V69.0351H459.272V66.1404H456.378V69.0351ZM456.378 77.7191V80.6138H453.483H450.588V77.7191V74.8244H453.483H456.378V77.7191Z" fill="#FFFAFC"/>
<path d="M430.285 109.623V106.728H427.391V109.623V112.518V115.412H430.285V112.518H433.18V109.623H430.285Z" fill="#FFFAFC"/>
<path d="M462.164 63.2244H459.27V66.119H462.164V63.2244Z" fill="#FFFAFC"/>
<path d="M456.377 63.2244H453.482V66.119H456.377V63.2244Z" fill="#FFFAFC"/>
<path d="M433.18 103.813V100.918H430.285H427.391V103.813H430.285V106.728H433.18V103.813Z" fill="#FFFAFC"/>
<path d="M462.186 60.3299V63.2246H465.08H467.975V60.3299H465.08V57.4352V54.5405H462.186V57.4352V60.3299Z" fill="#FFFAFC"/>
<path d="M447.674 100.918V98.0232H444.779V95.1286H441.885H438.99V92.213H436.095V95.1286H433.18H430.285V92.213V89.3184H427.391V92.213V95.1286V98.0232H430.285H433.18V100.918H436.095H438.99V98.0232H441.885V100.918H438.99V103.813H436.095V106.728H438.99V109.623V112.517H436.095H433.18V115.412H436.095H438.99H441.885V112.517V109.623V106.728V103.813H444.779V100.918H447.674Z" fill="#FFFAFC"/>
<path d="M450.569 51.6456H447.674V54.5403H450.569V51.6456Z" fill="#FFFAFC"/>
<path d="M453.481 89.3182H450.586V92.2129H453.481V89.3182Z" fill="#FFFAFC"/>
<path d="M465.082 95.1288V98.0235V100.918V103.813V106.708H462.188V103.813H459.272V106.708H456.378V109.602V112.497H453.483V109.602H450.588H447.694V106.708H450.588H453.483V103.813H450.588H447.694H444.799V106.708V109.602V112.497V115.392H447.694V112.497H450.588V115.392H453.483H456.378H459.272H462.167H465.062H467.956V112.497V109.602V106.708V103.813V100.918V98.0235V95.1288V92.2341H465.062V95.1288H465.082ZM465.082 112.518H462.188V109.623H465.082V112.518Z" fill="#FFFAFC"/>
<path d="M430.285 48.7306V45.8359H427.391V48.7306V51.6461H430.285V48.7306Z" fill="#FFFAFC"/>
<path d="M430.285 83.5288H427.391V86.4235H430.285V83.5288Z" fill="#FFFAFC"/>
<path d="M427.389 86.4238H424.494V89.3185H427.389V86.4238Z" fill="#FFFAFC"/>
<path d="M421.599 86.4238H418.684V89.3185H415.789V92.2132H418.684H421.599H424.494V89.3185H421.599V86.4238Z" fill="#FFFAFC"/>
<path d="M418.684 57.4351H415.789V60.3297H418.684V57.4351Z" fill="#FFFAFC"/>
<path d="M418.684 63.2244H415.789V66.119H418.684V63.2244Z" fill="#FFFAFC"/>
<path d="M412.896 74.824H415.791H418.686H421.601H424.496V71.9293H421.601V69.0346H424.496V66.1399V63.2244V60.3297V57.4351H421.601V60.3297H418.686V63.2244H421.601V66.1399H418.686V69.0346V71.9293H415.791V69.0346H412.896V66.1399H410.002V69.0346V71.9293H412.896V74.824Z" fill="#FFFAFC"/>
<path d="M412.896 86.4238H410.002V89.3185V92.2132H412.896V89.3185H415.791V86.4238H412.896Z" fill="#FFFAFC"/>
<path d="M412.895 57.4349H415.789V54.5402V51.6455H412.895V54.5402H410H407.105V57.4349H410H412.895Z" fill="#FFFAFC"/>
<path d="M412.894 63.2244H415.789V60.3297H412.894H410H407.105V57.4351H404.189V60.3297V63.2244V66.1399H407.105H410V63.2244H412.894Z" fill="#FFFAFC"/>
<path d="M410 80.6341H407.105V77.7186H410V80.6341H412.894V83.5287H415.789V80.6341H418.684H421.599V83.5287V86.4234H424.494V83.5287H427.389V80.6341V77.7186H430.283V74.8239V71.9292V69.0345V66.1399V63.2243V60.3297H433.178V63.2243V66.1399V69.0345H436.093V71.9292H438.988V69.0345H441.883V66.1399H444.777V63.2243H447.672H450.588V60.3297H453.482V57.435H450.588H447.672V60.3297H444.777H441.883V63.2243H438.988V66.1399H436.093V63.2243V60.3297V57.435V54.5403H433.178V57.435H430.283V54.5403H427.389V51.6456H424.494H421.599H418.684V54.5403H421.599H424.494V57.435H427.389V60.3297V63.2243V66.1399V69.0345V71.9292V74.8239H424.494V77.7186H421.599H418.684H415.789H412.894V74.8239H410V71.9292H407.105V74.8239H404.189V77.7186V80.6341V83.5287V86.4234V89.3181V92.2128H407.105V89.3181V86.4234H410V83.5287V80.6341Z" fill="#FFFAFC"/>
<path d="M407.084 51.6456H404.189V54.5403H407.084V51.6456Z" fill="#FFFAFC"/>
<path d="M407.084 69.0347H404.189V71.9293H407.084V69.0347Z" fill="#FFFAFC"/>
<path d="M488.262 63.2246H485.367H482.472V60.3299H479.578V63.2246H476.683V66.1401H473.768V63.2246H476.683V60.3299V57.4352H473.768V54.5405V51.6458H470.873H467.978V48.7304V45.8357H465.084H462.189V42.941H459.273H456.379V45.8357H453.484V42.941H456.379V40.0463H459.273V37.1308H456.379V34.2361V31.3415H459.273H462.189V28.4468H459.273H456.379H453.484V31.3415V34.2361V37.1308V40.0463H450.589V42.941H447.674V45.8357H450.589V48.7304V51.6458H453.484V54.5405V57.4352H456.379V60.3299V63.2246H459.273V60.3299V57.4352V54.5405H462.189V51.6458H465.084V54.5405H470.873V57.4352V60.3299V63.2246V66.1401V69.0348H473.768V71.9294H476.683V69.0348H479.578V66.1401H482.472H485.367H488.262H491.177V63.2246V60.3299V57.4352H488.262V60.3299V63.2246Z" fill="#FFFAFC"/>
<path d="M485.367 89.3184V92.213H488.262H491.177V89.3184H488.262H485.367Z" fill="#FFFAFC"/>
<path d="M485.365 51.6455H482.471V54.5402H485.365V57.4349H488.26V54.5402H491.176V51.6455H488.26H485.365Z" fill="#FFFAFC"/>
<path d="M485.365 83.5288H482.471V86.4235H485.365V83.5288Z" fill="#FFFAFC"/>
<path d="M485.365 77.7185H482.471V80.6132H485.365V77.7185Z" fill="#FFFAFC"/>
<path d="M482.471 57.4349V54.5402H479.576V51.6455H476.682V54.5402V57.4349H479.576H482.471Z" fill="#FFFAFC"/>
<path d="M476.681 86.4238H473.766V89.3185H476.681H479.576V92.2132H482.47V89.3185V86.4238H479.576H476.681Z" fill="#FFFAFC"/>
<path d="M476.682 71.9293V74.824V77.7187H479.576V74.824H482.471V71.9293H485.366V74.824V77.7187H488.26V80.6342H485.366V83.5289H488.26V86.4235H491.176V83.5289V80.6342V77.7187V74.824H488.26V71.9293H491.176V69.0347H488.26H485.366H482.471H479.576V71.9293H476.682Z" fill="#FFFAFC"/>
<path d="M470.871 86.4239H473.766V83.5293H476.682H479.576H482.471V80.6346H479.576H476.682V77.7191H473.766H470.871V74.8244H473.766V71.9297H470.871H467.977V69.0351V66.1404H465.082V69.0351V71.9297V74.8244H467.977V77.7191H465.082V80.6346V83.5293H467.977V86.4239V89.3186V92.2133H470.871H473.766V89.3186H470.871V86.4239Z" fill="#FFFAFC"/>
<path d="M441.883 89.3185V92.2132H444.778V89.3185V86.4238H441.883H438.988H436.094V89.3185H438.988H441.883Z" fill="#FFFAFC"/>
<path d="M438.988 83.5288H441.883H444.777V80.6341H441.883H438.988V77.7186H436.093H433.178V80.6341V83.5288V86.4235H436.093V83.5288H438.988Z" fill="#FFFAFC"/>
<path d="M436.072 89.3182H433.178V92.2129H436.072V89.3182Z" fill="#FFFAFC"/>
<path d="M447.672 83.5288H444.777V86.4235H447.672V83.5288Z" fill="#FFFAFC"/>
<path d="M447.672 92.2126H444.777V95.1074H447.672V92.2126Z" fill="#FFFAFC"/>
<path d="M436.072 71.9297H433.178V74.8244H436.072V71.9297Z" fill="#FFFAFC"/>
<path d="M491.176 14.6609H352.752V18.6593H491.176V14.6609Z" fill="#FFFAFC"/>
<path d="M393.132 28.4884H352.752V32.4868H393.132V28.4884Z" fill="#FFFAFC"/>
<path d="M393.132 42.3374H352.752V46.3358H393.132V42.3374Z" fill="#FFFAFC"/>
<path d="M393.132 56.1859H352.752V60.1843H393.132V56.1859Z" fill="#FFFAFC"/>
<path d="M393.132 70.014H352.752V74.0124H393.132V70.014Z" fill="#FFFAFC"/>
<path d="M393.132 83.8625H352.752V87.8609H393.132V83.8625Z" fill="#FFFAFC"/>
<path d="M393.132 97.7107H352.752V101.709H393.132V97.7107Z" fill="#FFFAFC"/>
<path d="M393.132 111.539H352.752V115.537H393.132V111.539Z" fill="#FFFAFC"/>
<path d="M491.176 125.387H352.752V129.386H491.176V125.387Z" fill="#FFFAFC"/>
<path d="M491.176 139.236H352.752V143.235H491.176V139.236Z" fill="#FFFAFC"/>
<path d="M491.176 153.085H352.752V157.083H491.176V153.085Z" fill="#FFFAFC"/>
<path d="M377.783 295.132C375.493 291.592 376.513 286.885 380.032 284.595L494.133 210.749C497.673 208.458 502.379 209.479 504.67 212.998C506.961 216.538 505.94 221.245 502.421 223.536L388.321 297.381C384.78 299.672 380.053 298.652 377.783 295.132ZM526.307 199.004C524.079 195.547 519.477 194.568 516.02 196.796C512.563 199.025 511.584 203.627 513.812 207.084C516.041 210.541 520.643 211.52 524.1 209.291C527.557 207.042 528.536 202.44 526.307 199.004Z" fill="url(#paint4_linear_152_7932)"/>
<path d="M487.348 463.148L437.805 349.819C437.805 349.819 445.115 306.211 438.076 262.291L232.221 185.821L198.671 158.374C190.904 152.002 179.221 154.48 174.702 163.455C169.891 172.972 171.703 184.51 179.221 192.09L225.806 239.134L221.704 263.728L184.802 230.928L166.643 264.894L188.613 285.865L177.534 304.337L200.691 326.515L195.36 339.843C195.36 339.843 216.956 357.42 241.009 365.021C263.312 387.283 279.118 398.403 315.437 404.255L338.678 463.128H487.348V463.148Z" fill="#DE8383"/>
<path d="M315.395 404.276C326.765 406.608 347.84 403.318 361.085 400.756C366.895 399.632 372.101 404.526 371.372 410.419L364.708 463.148H338.656L315.395 404.276Z" fill="url(#paint5_linear_152_7932)"/>
<path d="M395.424 246.422C395.424 246.422 389.114 257.293 383.929 262.145C378.743 266.977 380.472 239.696 380.472 239.696L395.424 246.422Z" fill="#DE6262"/>
<path d="M235.969 363.292L257.794 195.297L232.221 185.801L198.671 158.353C190.904 151.981 179.221 154.459 174.702 163.435C169.891 172.952 171.703 184.489 179.221 192.069L225.806 239.113L221.704 263.707L184.802 230.908L166.643 264.873L188.613 285.844L177.534 304.316L200.691 326.495L195.36 339.823C195.319 339.843 213.999 355.046 235.969 363.292Z" fill="#DE6262"/>
<path d="M205.168 342.571C205.168 342.571 215.664 348.777 232.449 322.434L220.932 315.791L205.168 342.571Z" fill="#B54141"/>
<path d="M366.667 368.04H247.485C234.761 368.04 224.432 357.711 224.432 344.987V80.0929C224.432 67.3688 234.761 57.0396 247.485 57.0396H366.667C379.391 57.0396 389.72 67.3688 389.72 80.0929V344.987C389.72 357.711 379.391 368.04 366.667 368.04Z" fill="#0F3A85"/>
<path d="M366.667 65.3695H339.844C337.324 65.3695 335.262 67.4104 335.262 69.951C335.262 72.45 333.242 74.4701 330.743 74.4701H283.408C280.909 74.4701 278.889 72.45 278.889 69.951C278.889 67.4312 276.848 65.3695 274.308 65.3695H247.485C239.342 65.3695 232.762 71.9711 232.762 80.0928V344.987C232.762 353.13 239.363 359.71 247.485 359.71H366.667C374.809 359.71 381.39 353.109 381.39 344.987V80.0928C381.39 71.9502 374.809 65.3695 366.667 65.3695Z" fill="#FFFAFC"/>
<path d="M292.945 68.7432C292.945 70.0135 291.924 71.0339 290.654 71.0339C289.384 71.0339 288.363 70.0135 288.363 68.7432C288.363 67.4728 289.384 66.4524 290.654 66.4524C291.924 66.4524 292.945 67.4728 292.945 68.7432Z" fill="#1E3357"/>
<path d="M324.621 69.9095H296.112C295.466 69.9095 294.945 69.3889 294.945 68.7433C294.945 68.0978 295.466 67.5771 296.112 67.5771H324.621C325.267 67.5771 325.787 68.0978 325.787 68.7433C325.808 69.3889 325.288 69.9095 324.621 69.9095Z" fill="#1E3357"/>
<path d="M283.323 164.455H283.031H280.033H261.998V185.78H283.323V164.455ZM280.324 182.761H265.018V167.454H280.033H280.324V182.761Z" fill="#333333"/>
<path d="M277.179 170.599H268.141V179.637H277.179V170.599Z" fill="#333333"/>
<path d="M330.827 164.455V185.78H352.151V164.455H330.827ZM349.153 182.761H333.846V167.454H349.153V182.761Z" fill="#333333"/>
<path d="M346.007 170.599H336.969V179.637H346.007V170.599Z" fill="#333333"/>
<path d="M261.998 254.607H283.323V233.282H261.998V254.607ZM264.997 236.302H280.303V251.608H264.997V236.302Z" fill="#333333"/>
<path d="M277.179 239.425H268.141V248.463H277.179V239.425Z" fill="#333333"/>
<path d="M330.827 254.607H352.151V233.282H330.827V254.607ZM333.846 236.302H349.153V251.608H333.846V236.302Z" fill="#333333"/>
<path d="M346.007 239.425H336.969V248.463H346.007V239.425Z" fill="#333333"/>
<path d="M289.052 167.454V164.455H286.053V167.454V170.474H289.052V167.454Z" fill="#333333"/>
<path d="M298.067 167.454H301.066V170.474H304.065H307.085V173.473H304.065V176.471H301.066V179.47H304.065H307.085V176.471H310.083V173.473V170.474V167.454V164.455H307.085V167.454H304.065V164.455H301.066H298.067H295.048H292.049V167.454H295.048V170.474H298.067V167.454Z" fill="#333333"/>
<path d="M325.097 170.474V173.473H328.116V170.474V167.454V164.455H325.097V167.454H322.098V170.474H325.097Z" fill="#333333"/>
<path d="M295.048 170.474H292.049V173.472H295.048V170.474Z" fill="#333333"/>
<path d="M301.067 170.474H298.068V173.472H301.067V170.474Z" fill="#333333"/>
<path d="M322.098 176.472V179.47H325.097H328.116V176.472H325.097V173.473H322.098V176.472Z" fill="#333333"/>
<path d="M298.067 176.471V173.473H295.048V176.471V179.47V182.49H292.049V185.489H295.048H298.067V188.488V191.507V194.506H301.066H304.065V191.507H301.066V188.488V185.489V182.49V179.47H298.067V176.471Z" fill="#333333"/>
<path d="M292.05 179.47V176.472V173.473H289.052H286.053V176.472H289.052V179.47V182.49H292.05V179.47Z" fill="#333333"/>
<path d="M307.061 182.49H304.063V185.488H307.061V182.49Z" fill="#333333"/>
<path d="M316.1 206.522H313.102V203.523H310.103H307.104V206.522H310.103V209.521H307.104H304.105V206.522H301.106V209.521H298.108V212.52V215.518H301.106V212.52H304.105H307.104V215.518V218.517V221.516H310.103H313.102H316.1V224.515H313.102V227.514H316.1V230.512V233.511H313.102H310.103H307.104V236.572H310.103V239.571H313.102V236.572H316.1V239.571H313.102V242.57H316.1H319.099V239.571V236.572H322.098V233.574H319.099V230.575H322.098H325.097V227.576H322.098H319.099V224.577V221.578H322.098V218.58H319.099V215.581V212.582H322.098V209.583V206.584H319.099V203.586H316.1V206.522ZM316.1 215.539V218.538H313.102H310.103V215.539V212.54H313.102H316.1V215.539Z" fill="#333333"/>
<path d="M289.052 248.588V245.589H286.053V248.588V251.608V254.607H289.052V251.608H292.05V248.588H289.052Z" fill="#333333"/>
<path d="M322.099 200.524H319.1V203.523H322.099V200.524Z" fill="#333333"/>
<path d="M316.079 200.524H313.08V203.523H316.079V200.524Z" fill="#333333"/>
<path d="M292.05 242.591V239.571H289.052H286.053V242.591H289.052V245.59H292.05V242.591Z" fill="#333333"/>
<path d="M322.098 197.505V200.524H325.097H328.116V197.505H325.097V194.506V191.507H322.098V194.506V197.505Z" fill="#333333"/>
<path d="M307.086 239.571V236.573H304.066V233.574H301.068H298.069V230.575H295.049V233.574H292.05H289.052V230.575V227.555H286.053V230.575V233.574V236.573H289.052H292.05V239.571H295.049H298.069V236.573H301.068V239.571H298.069V242.591H295.049V245.59H298.069V248.589V251.608H295.049H292.05V254.607H295.049H298.069H301.068V251.608V248.589V245.59V242.591H304.066V239.571H307.086Z" fill="#333333"/>
<path d="M310.085 188.488H307.086V191.486H310.085V188.488Z" fill="#333333"/>
<path d="M313.081 227.555H310.082V230.554H313.081V227.555Z" fill="#333333"/>
<path d="M325.099 233.574V236.572V239.571V242.57V245.569H322.1V242.57H319.102V245.569H316.103V248.568V251.566H313.104V248.568H310.105H307.106V245.569H310.105H313.104V242.57H310.105H307.106H304.108V245.569V248.568V251.566V254.565H307.106V251.566H310.105V254.565H313.104H316.103H319.102H322.1H325.099H328.098V251.566V248.568V245.569V242.57V239.571V236.572V233.574V230.575H325.099V233.574ZM325.099 251.608H322.1V248.609H325.099V251.608Z" fill="#333333"/>
<path d="M289.052 185.488V182.49H286.053V185.488V188.487H289.052V185.488Z" fill="#333333"/>
<path d="M289.052 221.557H286.053V224.556H289.052V221.557Z" fill="#333333"/>
<path d="M286.03 224.557H283.031V227.555H286.03V224.557Z" fill="#333333"/>
<path d="M280.032 224.557H277.033V227.555H274.014V230.575H277.033H280.032H283.031V227.555H280.032V224.557Z" fill="#333333"/>
<path d="M277.013 194.506H274.014V197.504H277.013V194.506Z" fill="#333333"/>
<path d="M277.013 200.524H274.014V203.523H277.013V200.524Z" fill="#333333"/>
<path d="M271.017 212.54H274.016H277.035H280.034H283.033V209.521H280.034V206.522H283.033V203.523V200.524V197.505V194.506H280.034V197.505H277.035V200.524H280.034V203.523H277.035V206.522V209.521H274.016V206.522H271.017V203.523H268.018V206.522V209.521H271.017V212.54Z" fill="#333333"/>
<path d="M271.017 224.557H268.018V227.555V230.575H271.017V227.555H274.016V224.557H271.017Z" fill="#333333"/>
<path d="M271.015 194.506H274.013V191.507V188.488H271.015V191.507H268.016H264.996V194.506H268.016H271.015Z" fill="#333333"/>
<path d="M271.015 200.524H274.014V197.505H271.015H268.017H264.997V194.506H261.998V197.505V200.524V203.523H264.997H268.017V200.524H271.015Z" fill="#333333"/>
<path d="M268.017 218.538H264.997V215.539H268.017V218.538H271.015V221.558H274.014V218.538H277.034H280.033V221.558V224.556H283.031V221.558H286.051V218.538V215.539H289.05V212.54V209.521V206.522V203.523V200.524V197.505H292.049V200.524V203.523V206.522H295.048V209.521H298.067V206.522H301.066V203.523H304.065V200.524H307.084H310.083V197.505H313.082V194.506H310.083H307.084V197.505H304.065H301.066V200.524H298.067V203.523H295.048V200.524V197.505V194.506V191.507H292.049V194.506H289.05V191.507H286.051V188.487H283.031H280.033H277.034V191.507H280.033H283.031V194.506H286.051V197.505V200.524V203.523V206.522V209.521V212.54H283.031V215.539H280.033H277.034H274.014H271.015V212.54H268.017V209.521H264.997V212.54H261.998V215.539V218.538V221.558V224.556V227.555V230.575H264.997V227.555V224.556H268.017V221.558V218.538Z" fill="#333333"/>
<path d="M264.997 188.487H261.998V191.486H264.997V188.487Z" fill="#333333"/>
<path d="M264.997 206.522H261.998V209.521H264.997V206.522Z" fill="#333333"/>
<path d="M349.153 200.524H346.154H343.134V197.505H340.135V200.524H337.136V203.523H334.117V200.524H337.136V197.505V194.506H334.117V191.507V188.487H331.118H328.119V185.489V182.49H325.1H322.101V179.47H319.102H316.103V182.49H313.084V179.47H316.103V176.471H319.102V173.473H316.103V170.474V167.454H319.102H322.101V164.455H319.102H316.103H313.084V167.454V170.474V173.473V176.471H310.085V179.47H307.086V182.49H310.085V185.489V188.487H313.084V191.507V194.506H316.103V197.505V200.524H319.102V197.505V194.506V191.507H322.101V188.487H325.1V191.507H331.118V194.506V197.505V200.524V203.523V206.522H334.117V209.521H337.136V206.522H340.135V203.523H343.134H346.154H349.153H352.151V200.524V197.505V194.506H349.153V197.505V200.524Z" fill="#333333"/>
<path d="M346.152 227.555V230.575H349.151H352.15V227.555H349.151H346.152Z" fill="#333333"/>
<path d="M346.155 188.488H343.135V191.507H346.155V194.506H349.153V191.507H352.152V188.488H349.153H346.155Z" fill="#333333"/>
<path d="M346.134 221.557H343.135V224.556H346.134V221.557Z" fill="#333333"/>
<path d="M346.134 215.539H343.135V218.538H346.134V215.539Z" fill="#333333"/>
<path d="M343.133 194.506V191.507H340.134V188.487H337.135V191.507V194.506H340.134H343.133Z" fill="#333333"/>
<path d="M337.137 224.557H334.117V227.555H337.137H340.136V230.575H343.134V227.555V224.557H340.136H337.137Z" fill="#333333"/>
<path d="M337.135 209.521V212.54V215.539H340.134V212.54H343.133V209.521H346.152V212.54V215.539H349.151V218.538H346.152V221.557H349.151V224.556H352.15V221.557V218.538V215.539V212.54H349.151V209.521H352.15V206.522H349.151H346.152H343.133H340.134V209.521H337.135Z" fill="#333333"/>
<path d="M331.118 224.556H334.117V221.558H337.136H340.135H343.134V218.538H340.135H337.136V215.539H334.117H331.118V212.54H334.117V209.521H331.118H328.119V206.522V203.523H325.1V206.522V209.521V212.54H328.119V215.539H325.1V218.538V221.558H328.119V224.556V227.555V230.575H331.118H334.117V227.555H331.118V224.556Z" fill="#333333"/>
<path d="M301.063 227.555V230.575H304.062V227.555V224.557H301.063H298.065H295.045V227.555H298.065H301.063Z" fill="#333333"/>
<path d="M298.067 221.557H301.066H304.065V218.538H301.066H298.067V215.539H295.048H292.049V218.538V221.557V224.556H295.048V221.557H298.067Z" fill="#333333"/>
<path d="M295.048 227.555H292.049V230.554H295.048V227.555Z" fill="#333333"/>
<path d="M307.061 221.557H304.063V224.556H307.061V221.557Z" fill="#333333"/>
<path d="M307.061 230.575H304.063V233.574H307.061V230.575Z" fill="#333333"/>
<path d="M295.048 209.521H292.049V212.519H295.048V209.521Z" fill="#333333"/>
<path d="M366.667 65.3695H339.844C337.324 65.3695 335.262 67.4104 335.262 69.951C335.262 72.45 333.242 74.4701 330.743 74.4701H283.408C280.909 74.4701 278.889 72.45 278.889 69.951C278.889 67.4312 276.848 65.3695 274.308 65.3695H247.485C239.342 65.3695 232.762 71.9711 232.762 80.0928V128.282H381.39V80.0928C381.39 71.9502 374.809 65.3695 366.667 65.3695Z" fill="#4881E8"/>
<path d="M279.783 114.579L281.012 115.891L278.992 117.682L277.68 116.287C276.805 116.704 275.827 116.953 274.785 116.953C271.245 116.953 268.371 114.163 268.371 110.539C268.371 106.916 271.245 104.125 274.785 104.125C278.326 104.125 281.199 106.916 281.199 110.539C281.199 112.08 280.658 113.476 279.783 114.579ZM275.639 114.121L273.848 112.226L275.868 110.435L277.847 112.539C278.159 111.976 278.367 111.31 278.367 110.539C278.367 108.332 276.785 106.874 274.765 106.874C272.744 106.874 271.162 108.332 271.162 110.539C271.162 112.747 272.744 114.205 274.765 114.205C275.077 114.205 275.348 114.163 275.639 114.121Z" fill="#FFFAFC"/>
<path d="M287.194 112.643H285.862V116.704H283.029V104.354H287.965C290.318 104.354 292.192 106.25 292.192 108.582C292.192 110.102 291.276 111.477 289.922 112.164L292.546 116.704H289.506L287.194 112.643ZM285.841 110.186H287.965C288.735 110.186 289.381 109.498 289.381 108.603C289.381 107.707 288.756 107.02 287.965 107.02H285.841V110.186Z" fill="#FFFAFC"/>
<path d="M298.088 110.539C298.088 106.916 300.795 104.125 304.502 104.125C306.751 104.125 308.709 105.229 309.792 106.978L307.355 108.394C306.814 107.436 305.752 106.874 304.502 106.874C302.315 106.874 300.899 108.332 300.899 110.539C300.899 112.747 302.315 114.205 304.502 114.205C305.752 114.205 306.834 113.642 307.355 112.684L309.792 114.1C308.73 115.85 306.751 116.953 304.502 116.953C300.795 116.953 298.088 114.163 298.088 110.539Z" fill="#FFFAFC"/>
<path d="M310.582 110.539C310.582 106.916 313.456 104.125 316.996 104.125C320.537 104.125 323.41 106.916 323.41 110.539C323.41 114.163 320.537 116.953 316.996 116.953C313.477 116.953 310.582 114.163 310.582 110.539ZM320.599 110.539C320.599 108.332 319.016 106.874 316.996 106.874C314.976 106.874 313.394 108.332 313.394 110.539C313.394 112.747 314.976 114.205 316.996 114.205C319.016 114.205 320.599 112.747 320.599 110.539Z" fill="#FFFAFC"/>
<path d="M336.113 110.54C336.113 114.038 333.51 116.704 330.115 116.704H325.18V104.354H330.115C333.531 104.354 336.113 107.041 336.113 110.54ZM333.406 110.54C333.406 108.415 332.073 107.083 330.115 107.083H327.991V113.996H330.115C332.052 113.996 333.406 112.643 333.406 110.54Z" fill="#FFFAFC"/>
<path d="M345.631 113.996V116.704H337.863V104.354H345.527V107.062H340.675V109.103H345.09V111.789H340.675V113.976H345.631V113.996Z" fill="#FFFAFC"/>
<path d="M360.357 69.8308L361.063 68.4347V68.4224H360.249V68.2529H361.26V68.4317L360.558 69.8308H360.357ZM362.021 69.8524C361.915 69.8524 361.822 69.8336 361.741 69.7961C361.66 69.7581 361.597 69.706 361.552 69.6397C361.507 69.573 361.484 69.4969 361.485 69.4117C361.484 69.3449 361.497 69.2833 361.524 69.2268C361.551 69.1698 361.587 69.1222 361.634 69.0842C361.68 69.0457 361.732 69.0213 361.79 69.011V69.0018C361.714 68.9823 361.654 68.9399 361.61 68.8747C361.565 68.8089 361.543 68.7342 361.543 68.6505C361.543 68.5703 361.563 68.4987 361.604 68.4355C361.645 68.3723 361.702 68.3225 361.774 68.286C361.846 68.2496 361.929 68.2313 362.021 68.2313C362.113 68.2313 362.194 68.2496 362.266 68.286C362.338 68.3225 362.395 68.3723 362.436 68.4355C362.477 68.4987 362.498 68.5703 362.499 68.6505C362.498 68.7342 362.475 68.8089 362.43 68.8747C362.386 68.9399 362.326 68.9823 362.252 69.0018V69.011C362.309 69.0213 362.361 69.0457 362.406 69.0842C362.452 69.1222 362.489 69.1698 362.516 69.2268C362.543 69.2833 362.557 69.3449 362.557 69.4117C362.557 69.4969 362.534 69.573 362.488 69.6397C362.443 69.706 362.38 69.7581 362.299 69.7961C362.219 69.8336 362.126 69.8524 362.021 69.8524ZM362.021 69.6829C362.092 69.6829 362.154 69.6713 362.206 69.6482C362.258 69.6251 362.298 69.5925 362.326 69.5504C362.354 69.5082 362.369 69.4589 362.369 69.4024C362.369 69.3429 362.353 69.2902 362.323 69.2445C362.293 69.1988 362.251 69.1628 362.199 69.1366C362.147 69.1104 362.088 69.0973 362.021 69.0973C361.954 69.0973 361.894 69.1104 361.841 69.1366C361.788 69.1628 361.747 69.1988 361.717 69.2445C361.687 69.2902 361.672 69.3429 361.673 69.4024C361.672 69.4589 361.686 69.5082 361.714 69.5504C361.742 69.5925 361.782 69.6251 361.835 69.6482C361.887 69.6713 361.949 69.6829 362.021 69.6829ZM362.021 68.934C362.078 68.934 362.128 68.9227 362.171 68.9001C362.216 68.8775 362.25 68.8459 362.275 68.8053C362.301 68.7648 362.313 68.7172 362.314 68.6628C362.313 68.6094 362.301 68.5629 362.276 68.5233C362.251 68.4833 362.217 68.4525 362.174 68.4309C362.13 68.4088 362.079 68.3978 362.021 68.3978C361.962 68.3978 361.91 68.4088 361.866 68.4309C361.822 68.4525 361.788 68.4833 361.764 68.5233C361.74 68.5629 361.728 68.6094 361.728 68.6628C361.728 68.7172 361.74 68.7648 361.765 68.8053C361.79 68.8459 361.824 68.8775 361.869 68.9001C361.913 68.9227 361.964 68.934 362.021 68.934ZM363.657 69.535V69.4517C363.657 69.3942 363.669 69.3416 363.692 69.2938C363.717 69.2455 363.751 69.207 363.797 69.1782C363.843 69.149 363.899 69.1343 363.965 69.1343C364.032 69.1343 364.088 69.149 364.133 69.1782C364.178 69.207 364.212 69.2455 364.236 69.2938C364.259 69.3416 364.27 69.3942 364.27 69.4517V69.535C364.27 69.5925 364.258 69.6454 364.235 69.6937C364.212 69.7414 364.177 69.78 364.132 69.8092C364.086 69.838 364.031 69.8524 363.965 69.8524C363.898 69.8524 363.842 69.838 363.796 69.8092C363.751 69.78 363.716 69.7414 363.692 69.6937C363.669 69.6454 363.657 69.5925 363.657 69.535ZM363.814 69.4517V69.535C363.814 69.5827 363.825 69.6256 363.848 69.6636C363.871 69.7011 363.91 69.7199 363.965 69.7199C364.019 69.7199 364.057 69.7011 364.079 69.6636C364.102 69.6256 364.113 69.5827 364.113 69.535V69.4517C364.113 69.404 364.102 69.3613 364.081 69.3239C364.059 69.2858 364.021 69.2668 363.965 69.2668C363.911 69.2668 363.872 69.2858 363.849 69.3239C363.826 69.3613 363.814 69.404 363.814 69.4517ZM362.871 68.632V68.5488C362.871 68.4912 362.883 68.4386 362.907 68.3908C362.931 68.3425 362.966 68.304 363.011 68.2753C363.058 68.246 363.114 68.2313 363.179 68.2313C363.246 68.2313 363.302 68.246 363.347 68.2753C363.392 68.304 363.427 68.3425 363.45 68.3908C363.473 68.4386 363.484 68.4912 363.484 68.5488V68.632C363.484 68.6895 363.473 68.7424 363.449 68.7907C363.426 68.8385 363.391 68.877 363.346 68.9063C363.3 68.935 363.245 68.9494 363.179 68.9494C363.113 68.9494 363.056 68.935 363.011 68.9063C362.965 68.877 362.93 68.8385 362.907 68.7907C362.883 68.7424 362.871 68.6895 362.871 68.632ZM363.028 68.5488V68.632C363.028 68.6798 363.04 68.7226 363.062 68.7606C363.085 68.7981 363.124 68.8169 363.179 68.8169C363.233 68.8169 363.271 68.7981 363.293 68.7606C363.316 68.7226 363.327 68.6798 363.327 68.632V68.5488C363.327 68.501 363.316 68.4584 363.295 68.4209C363.273 68.3829 363.235 68.3639 363.179 68.3639C363.125 68.3639 363.087 68.3829 363.063 68.4209C363.04 68.4584 363.028 68.501 363.028 68.5488ZM362.93 69.8308L364.014 68.2529H364.19L363.105 69.8308H362.93Z" fill="#FFFAFC"/>
<path d="M247.822 68.2529V69.8308H247.631V68.4532H247.622L247.236 68.709V68.5149L247.631 68.2529H247.822ZM248.325 69.8308L249.031 68.4347V68.4224H248.217V68.2529H249.228V68.4317L248.525 69.8308H248.325ZM249.379 69.8431C249.341 69.8431 249.309 69.8295 249.282 69.8023C249.254 69.7751 249.241 69.7425 249.241 69.7045C249.241 69.6664 249.254 69.6338 249.282 69.6066C249.309 69.5794 249.341 69.5658 249.379 69.5658C249.417 69.5658 249.45 69.5794 249.477 69.6066C249.505 69.6338 249.518 69.6664 249.518 69.7045C249.518 69.7296 249.512 69.7527 249.499 69.7738C249.487 69.7949 249.47 69.8118 249.449 69.8246C249.428 69.837 249.405 69.8431 249.379 69.8431ZM249.804 69.5072V69.35L250.498 68.2529H250.612V68.4964H250.535L250.011 69.3254V69.3377H250.945V69.5072H249.804ZM250.547 69.8308V69.4595V69.3863V68.2529H250.729V69.8308H250.547ZM251.726 69.8524C251.636 69.8524 251.555 69.8344 251.482 69.7985C251.41 69.7625 251.352 69.7132 251.308 69.6505C251.264 69.5879 251.241 69.5165 251.236 69.4363H251.421C251.429 69.5077 251.461 69.5668 251.518 69.6135C251.577 69.6598 251.646 69.6829 251.726 69.6829C251.791 69.6829 251.849 69.6677 251.899 69.6374C251.95 69.6071 251.99 69.5655 252.018 69.5126C252.048 69.4592 252.062 69.3988 252.062 69.3316C252.062 69.2627 252.047 69.2013 252.017 69.1474C251.987 69.093 251.946 69.0501 251.894 69.0188C251.841 68.9874 251.781 68.9715 251.714 68.971C251.666 68.9705 251.616 68.9779 251.565 68.9933C251.515 69.0082 251.473 69.0275 251.44 69.0511L251.261 69.0295L251.357 68.2529H252.176V68.4224H251.517L251.461 68.8878H251.471C251.503 68.8621 251.544 68.8408 251.592 68.8238C251.641 68.8069 251.692 68.7984 251.745 68.7984C251.842 68.7984 251.928 68.8215 252.003 68.8677C252.079 68.9135 252.139 68.9761 252.182 69.0557C252.225 69.1353 252.247 69.2263 252.247 69.3285C252.247 69.4291 252.225 69.519 252.18 69.5981C252.135 69.6767 252.073 69.7389 251.995 69.7846C251.916 69.8298 251.827 69.8524 251.726 69.8524Z" fill="#FFFAFC"/>
<path d="M354.606 73.3245H342.528C341.278 73.3245 340.258 72.3041 340.258 71.0546C340.258 69.8051 341.278 68.7847 342.528 68.7847H354.606C355.856 68.7847 356.876 69.8051 356.876 71.0546C356.876 72.3041 355.856 73.3245 354.606 73.3245ZM342.507 69.2845C341.549 69.2845 340.758 70.0758 340.758 71.0338C340.758 71.9917 341.549 72.7831 342.507 72.7831H354.586C355.544 72.7831 356.335 71.9917 356.335 71.0338C356.335 70.0758 355.544 69.2845 354.586 69.2845H342.507Z" fill="#FFFAFC"/>
<path d="M352.506 71.8671H342.552C342.094 71.8671 341.719 71.4922 341.719 71.034C341.719 70.5759 342.094 70.201 342.552 70.201H352.506C352.964 70.201 353.339 70.5759 353.339 71.034C353.339 71.4922 352.964 71.8671 352.506 71.8671Z" fill="#66D166"/>
<path d="M255.445 175.388H252.842V155.292H272.938V157.895H255.445V175.388Z" fill="#BFBFBF"/>
<path d="M361.317 175.388H358.714V157.895H341.221V155.292H361.317V175.388Z" fill="#BFBFBF"/>
<path d="M272.938 263.769H252.842V243.673H255.445V261.166H272.938V263.769Z" fill="#BFBFBF"/>
<path d="M361.317 263.769H341.221V261.166H358.714V243.673H361.317V263.769Z" fill="#BFBFBF"/>
<path d="M232.762 291.259V344.987C232.762 353.13 239.363 359.71 247.485 359.71H366.667C374.809 359.71 381.39 353.109 381.39 344.987V291.259H232.762Z" fill="#4881E8"/>
<path d="M330.306 332.138H283.866C278.056 332.138 273.35 327.432 273.35 321.622C273.35 315.811 278.056 311.105 283.866 311.105H330.306C336.116 311.105 340.823 315.811 340.823 321.622C340.823 327.432 336.116 332.138 330.306 332.138Z" fill="#4BD14B"/>
<path d="M291.344 323.725L292.864 322.85C293.135 323.496 293.614 323.912 294.488 323.912C295.321 323.912 295.53 323.579 295.53 323.288C295.53 322.809 295.092 322.621 293.926 322.309C292.781 321.996 291.656 321.434 291.656 319.956C291.656 318.456 292.906 317.602 294.239 317.602C295.509 317.602 296.508 318.206 297.071 319.352L295.592 320.226C295.321 319.685 294.967 319.331 294.259 319.331C293.718 319.331 293.426 319.601 293.426 319.914C293.426 320.268 293.614 320.518 294.822 320.872C295.988 321.226 297.3 321.642 297.3 323.267C297.3 324.745 296.113 325.641 294.426 325.641C292.822 325.641 291.781 324.87 291.344 323.725Z" fill="#FFFAFC"/>
<path d="M298.904 321.622C298.904 319.352 300.591 317.602 302.924 317.602C304.319 317.602 305.568 318.289 306.235 319.393L304.715 320.268C304.381 319.664 303.715 319.31 302.924 319.31C301.549 319.31 300.675 320.226 300.675 321.601C300.675 322.975 301.549 323.891 302.924 323.891C303.715 323.891 304.381 323.537 304.715 322.933L306.235 323.808C305.568 324.891 304.34 325.599 302.924 325.599C300.591 325.641 298.904 323.891 298.904 321.622Z" fill="#FFFAFC"/>
<path d="M312.669 324.266H309.795L309.4 325.474H307.463L310.087 317.748H312.336L314.96 325.474H313.023L312.669 324.266ZM312.148 322.6L311.253 319.768L310.358 322.6H312.148Z" fill="#FFFAFC"/>
<path d="M322.809 317.748V325.474H321.477L318.499 321.288V325.474H316.728V317.748H318.061L321.039 321.934V317.748H322.809Z" fill="#FFFAFC"/>
<path d="M184.111 304.836C184.111 304.836 201.854 312.438 224.866 286.302L226.636 259.375L184.111 304.836Z" fill="#B54141"/>
<path d="M171.889 265.873L213.476 256.751L197.129 242.216L171.889 265.873Z" fill="#B54141"/>
<path d="M185.486 190.299C185.486 190.299 212.559 192.735 225.491 180.594L205.874 164.622L185.486 190.299Z" fill="#B54141"/>
<path d="M195.755 340.572C188.842 335.386 187.217 324.578 194.089 313.437C198.296 306.606 210.021 292.549 211.957 290.987C213.894 289.426 220.162 276.535 224.848 276.535C229.534 276.535 235.781 281.616 234.219 294.111C232.657 306.606 226.014 311.104 226.014 311.104C226.014 311.104 220.933 329.056 216.06 335.699C211.187 342.342 201.774 345.091 195.755 340.572Z" fill="#DE8383"/>
<path d="M217.954 305.086L216.621 306.69C216.85 306.898 220.828 310.188 225.638 312.458C225.888 311.625 226.034 311.125 226.034 311.125C226.034 311.125 226.263 310.959 226.659 310.625C221.994 308.418 218.016 305.128 217.954 305.086Z" fill="#944646"/>
<path d="M229.427 287.468C231.364 281.533 225.075 275.598 222.201 277.639C218.681 280.304 214.933 287.093 212.871 289.884L224.845 298.485C224.866 298.505 227.678 292.82 229.427 287.468Z" fill="#EBA9A9"/>
<path d="M177.95 305.066C170.64 301.234 170.182 290.988 175.263 283.387C179.616 276.869 197.359 258.064 199.858 255.273C201.607 253.315 210.603 246.88 210.603 246.88C210.603 246.88 223.286 232.532 227.388 235.406C231.491 238.28 237.093 249.025 229.804 259.563C222.515 270.1 216.059 273.807 216.059 273.807C216.059 273.807 213.415 282.012 205.168 291.384C196.921 300.755 187.279 309.959 177.95 305.066Z" fill="#DE8383"/>
<path d="M218.827 258.001C218.827 258.001 234.259 242.549 222.638 236.218C217.391 239.217 210.602 246.881 210.602 246.881C210.602 246.881 215.662 249.942 218.827 258.001Z" fill="#EBA9A9"/>
<path d="M210.188 265.873L209.146 267.685C209.209 267.726 213.999 270.559 215.665 274.869C215.935 274.203 216.06 273.807 216.06 273.807C216.06 273.807 216.456 273.578 217.164 273.078C214.977 268.705 210.438 266.019 210.188 265.873Z" fill="#944646"/>
<path d="M167.057 265.602C173.554 271.808 201.71 254.482 212.893 232.803C223.472 225.389 233.822 213.873 231.281 202.544C228.74 191.215 221.348 191.611 221.348 191.611C221.348 191.611 207.853 202.94 199.377 207.813C190.881 212.686 179.302 225.597 171.888 233.219C164.454 240.82 157.852 256.835 167.057 265.602Z" fill="#DE8383"/>
<path d="M215.953 215.976C215.953 215.976 222.138 212.373 225.803 205.793C228.864 200.316 225.053 194.152 221.346 191.632C221.346 191.632 214.099 197.713 206.873 202.898C209.455 207.625 215.953 215.976 215.953 215.976Z" fill="#EBA9A9"/>
<path d="M207.957 225.285L206.604 226.868C206.645 226.91 210.123 229.908 212.559 233.449C212.664 233.24 212.789 233.032 212.913 232.803C213.309 232.532 213.684 232.241 214.08 231.97C211.497 228.347 208.124 225.431 207.957 225.285Z" fill="#944646"/>
<path d="M174.76 186.613C168.055 179.616 168.888 166.808 178.092 151.46C187.297 136.112 191.816 130.26 197.21 123.825C201.666 118.515 215.431 102.896 215.431 102.896C215.431 102.896 226.469 105.333 227.906 114.975C229.343 124.638 219.867 141.527 213.953 146.087C212.828 155.209 206.227 173.222 200.604 180.407C195.169 187.363 183.174 195.401 174.76 186.613Z" fill="#DE8383"/>
<path d="M213.558 105.062C210.309 108.769 203.583 116.412 199.418 121.264C204.249 126.678 211.434 131.135 211.434 131.135C211.434 131.135 216.349 127.845 220.056 119.473C223.429 111.851 216.12 106.603 213.558 105.062Z" fill="#EBA9A9"/>
<path d="M206.83 142.964L205.58 144.63C205.726 144.734 208.558 146.775 213.764 147.358C213.827 146.92 213.91 146.483 213.952 146.087C214.223 145.879 214.514 145.608 214.785 145.358C209.683 144.942 206.871 142.984 206.83 142.964Z" fill="#944646"/>
<path d="M438.074 262.27C438.074 262.27 418.624 209.416 415.375 198.879C412.126 188.342 407.795 181.386 407.795 181.386C407.795 181.386 399.465 157.75 396.216 157.729C392.967 157.708 374.371 171.869 390.239 208.958C390.239 208.958 388.761 224.473 395.404 240.404V258.834L438.074 262.27Z" fill="#DE8383"/>
<path d="M407.796 181.386C407.796 181.386 402.423 166.163 398.633 160.144C388.221 165.038 396.176 185.926 396.176 185.926L407.796 181.386Z" fill="#EBA9A9"/>
<path d="M395.423 241.403L403.732 239.883L403.399 238.009L395.09 239.529C395.215 239.821 395.298 240.112 395.423 240.404V241.403Z" fill="#944646"/>
<path d="M390.258 208.937C390.258 208.937 390.237 209.166 390.216 209.583L399.087 205.689L398.317 203.939L389.758 207.709C389.904 208.125 390.07 208.521 390.258 208.937Z" fill="#944646"/>
<path d="M406.626 205.376L406.543 207.292C406.647 207.292 407.48 207.334 408.917 207.229C410.854 207.084 413.894 206.646 417.622 205.501C417.393 204.876 417.185 204.272 416.997 203.689C410.854 205.522 406.668 205.376 406.626 205.376Z" fill="#944646"/>
<path d="M405.77 200.337C405.812 200.295 409.54 197.317 414.35 195.797C414.142 195.172 413.913 194.568 413.705 193.985C408.603 195.609 404.771 198.67 404.562 198.837L405.77 200.337Z" fill="#944646"/>
<path d="M564.585 210.645L461.084 277.639C457.544 279.93 456.544 284.636 458.835 288.176C461.126 291.717 465.832 292.716 469.373 290.426L564.606 228.783V210.645H564.585Z" fill="url(#paint6_linear_152_7932)"/>
<path opacity="0.2" d="M109.245 206.293C109.662 204.148 109.891 201.94 109.891 199.67C109.891 197.4 109.662 195.193 109.245 193.048H99.9782C99.3951 190.841 98.5205 188.758 97.3959 186.821L103.956 180.261C101.457 176.575 98.2914 173.41 94.6054 170.911L88.0454 177.471C86.1087 176.346 84.0262 175.492 81.8188 174.889V165.621C79.6738 165.205 77.4664 164.976 75.1964 164.976C72.9265 164.976 70.7191 165.205 68.5741 165.621V174.889C66.3667 175.472 64.2841 176.346 62.3474 177.471L55.7875 170.911C52.1015 173.41 48.9361 176.575 46.4371 180.261L52.997 186.821C51.8724 188.758 51.0186 190.841 50.4147 193.048H41.1475C40.731 195.193 40.502 197.4 40.502 199.67C40.502 201.94 40.731 204.148 41.1475 206.293H50.4147C50.9978 208.5 51.8724 210.583 52.997 212.519L46.4371 219.079C48.9361 222.765 52.1015 225.931 55.7875 228.43L62.3474 221.87C64.2841 222.994 66.3667 223.848 68.5741 224.452V233.719C70.7191 234.136 72.9265 234.365 75.1964 234.365C77.4664 234.365 79.6738 234.136 81.8188 233.719V224.452C84.0262 223.869 86.1087 222.994 88.0454 221.87L94.6054 228.43C98.2914 225.931 101.457 222.765 103.956 219.079L97.3959 212.519C98.5205 210.583 99.3743 208.5 99.9782 206.293H109.245ZM75.2172 212.894C67.9076 212.894 61.9934 206.98 61.9934 199.67C61.9934 192.361 67.9076 186.446 75.2172 186.446C82.5268 186.446 88.4411 192.361 88.4411 199.67C88.4411 206.98 82.506 212.894 75.2172 212.894Z" fill="black"/>
<path d="M106.81 204.96C107.226 202.815 107.455 200.608 107.455 198.338C107.455 196.068 107.226 193.86 106.81 191.715H97.5427C96.9596 189.508 96.0849 187.425 94.9604 185.489L101.52 178.929C99.0212 175.243 95.8559 172.077 92.1698 169.578L85.61 176.138C83.6732 175.014 81.5907 174.16 79.3832 173.556V164.289C77.2383 163.872 75.0308 163.643 72.7609 163.643C70.491 163.643 68.2835 163.872 66.1386 164.289V173.556C63.9311 174.139 61.8486 175.014 59.9119 176.138L53.352 169.578C49.6659 172.077 46.5006 175.243 44.0016 178.929L50.5614 185.489C49.4369 187.425 48.5831 189.508 47.9791 191.715H38.712C38.2955 193.86 38.0664 196.068 38.0664 198.338C38.0664 200.608 38.2955 202.815 38.712 204.96H47.9791C48.5622 207.168 49.4369 209.25 50.5614 211.187L44.0016 217.747C46.5006 221.433 49.6659 224.598 53.352 227.097L59.9119 220.537C61.8486 221.662 63.9311 222.516 66.1386 223.12V232.387C68.2835 232.803 70.491 233.032 72.7609 233.032C75.0308 233.032 77.2383 232.803 79.3832 232.387V223.12C81.5907 222.536 83.6732 221.662 85.61 220.537L92.1698 227.097C95.8559 224.598 99.0212 221.433 101.52 217.747L94.9604 211.187C96.0849 209.25 96.9387 207.168 97.5427 204.96H106.81ZM72.7817 211.562C65.4722 211.562 59.5578 205.647 59.5578 198.338C59.5578 191.028 65.4722 185.114 72.7817 185.114C80.0913 185.114 86.0056 191.028 86.0056 198.338C86.0056 205.647 80.0913 211.562 72.7817 211.562Z" fill="#4881E8"/>
<path opacity="0.1" d="M113.14 208.75L93.8146 228.096V288.031H152.999V208.75H113.14Z" fill="black"/>
<path d="M111.579 206.709L92.2324 226.056V285.99H151.438V206.709H111.579Z" fill="#FFF4ED"/>
<path d="M111.579 206.709L113.661 227.847L92.2324 226.077L111.579 206.709Z" fill="#D9CFCA"/>
<path d="M111.579 206.709V226.077H92.2324L111.579 206.709Z" fill="#FFFAFC"/>
<path d="M108.209 240.675C108.209 243.507 106.105 245.693 103.336 245.693H99.3164V235.656H103.336C106.085 235.656 108.209 237.842 108.209 240.675ZM105.98 240.675C105.98 238.946 104.898 237.863 103.315 237.863H101.586V243.486H103.315C104.898 243.486 105.98 242.403 105.98 240.675Z" fill="#FFC142"/>
<path d="M109.062 242.112C109.062 239.967 110.749 238.322 112.853 238.322C114.956 238.322 116.664 239.967 116.664 242.112C116.664 244.257 114.977 245.902 112.853 245.902C110.749 245.902 109.062 244.257 109.062 242.112ZM114.519 242.112C114.519 241.091 113.811 240.425 112.874 240.425C111.936 240.425 111.228 241.091 111.228 242.112C111.228 243.132 111.936 243.799 112.874 243.799C113.79 243.799 114.519 243.132 114.519 242.112Z" fill="#FFC142"/>
<path d="M117.539 242.112C117.539 239.967 119.163 238.322 121.329 238.322C122.725 238.322 123.953 239.05 124.578 240.154L122.704 241.237C122.454 240.737 121.933 240.425 121.308 240.425C120.371 240.425 119.684 241.091 119.684 242.091C119.684 243.07 120.371 243.757 121.308 243.757C121.933 243.757 122.475 243.465 122.704 242.945L124.578 244.028C123.953 245.152 122.745 245.881 121.329 245.881C119.143 245.902 117.539 244.257 117.539 242.112Z" fill="#FFC142"/>
<path d="M124.934 244.527C124.934 243.778 125.558 243.174 126.287 243.174C127.037 243.174 127.641 243.799 127.641 244.527C127.641 245.277 127.016 245.881 126.287 245.881C125.558 245.902 124.934 245.277 124.934 244.527Z" fill="#FFC142"/>
<path d="M144.358 250.504H99.293V252.108H144.358V250.504Z" fill="#D9CFCA"/>
<path d="M144.358 256.398H99.293V258.002H144.358V256.398Z" fill="#D9CFCA"/>
<path d="M144.358 262.27H99.293V263.874H144.358V262.27Z" fill="#D9CFCA"/>
<path d="M144.358 268.164H99.293V269.768H144.358V268.164Z" fill="#D9CFCA"/>
<path d="M144.358 274.037H99.293V275.64H144.358V274.037Z" fill="#D9CFCA"/>
<path opacity="0.1" d="M74.3067 275.686C77.0732 258.553 65.4265 242.421 48.2932 239.654C31.1598 236.888 15.0277 248.534 12.2613 265.668C9.4948 282.801 21.1415 298.933 38.2749 301.7C55.4083 304.466 71.5403 292.819 74.3067 275.686Z" fill="black"/>
<path d="M52.9102 298.713C68.9693 292.132 76.6526 273.778 70.0714 257.719C63.4902 241.66 45.1366 233.977 29.0775 240.558C13.0184 247.139 5.33514 265.493 11.9164 281.552C18.4976 297.611 36.8511 305.294 52.9102 298.713Z" fill="#FFAB2E"/>
<path d="M40.9829 294.632C27.2176 294.632 16.0137 283.428 16.0137 269.663C16.0137 255.898 27.2176 244.694 40.9829 244.694C54.7483 244.694 65.9521 255.898 65.9521 269.663C65.9521 283.428 54.7691 294.632 40.9829 294.632ZM40.9829 245.485C27.6549 245.485 16.805 256.335 16.805 269.663C16.805 282.991 27.6549 293.841 40.9829 293.841C54.3109 293.841 65.1607 282.991 65.1607 269.663C65.1816 256.335 54.3318 245.485 40.9829 245.485Z" fill="white"/>
<path d="M40.9824 292.675C28.3 292.675 17.9707 282.346 17.9707 269.663C17.9707 256.981 28.3 246.651 40.9824 246.651C53.6648 246.651 63.994 256.981 63.994 269.663C64.0148 282.346 53.6857 292.675 40.9824 292.675ZM40.9824 247.38C28.6956 247.38 18.6996 257.376 18.6996 269.663C18.6996 281.95 28.6956 291.946 40.9824 291.946C53.2692 291.946 63.2651 281.95 63.2651 269.663C63.2651 257.376 53.29 247.38 40.9824 247.38Z" fill="white"/>
<path d="M49.7677 274.203C49.7677 276.056 49.1013 277.535 47.7685 278.659C46.4357 279.784 44.5615 280.45 42.1458 280.679V284.261H39.7509V280.742C36.9187 280.679 34.4197 280.18 32.2747 279.243V274.64C33.2951 275.14 34.503 275.577 35.9399 275.973C37.3768 276.348 38.6471 276.577 39.7509 276.66V271.246L38.5847 270.788C36.2731 269.871 34.6488 268.893 33.6908 267.83C32.7329 266.768 32.2539 265.456 32.2539 263.874C32.2539 262.187 32.9203 260.792 34.2322 259.709C35.5442 258.626 37.3976 257.959 39.7509 257.73V255.065H42.1458V257.668C44.8114 257.793 47.2271 258.313 49.3721 259.271L47.7269 263.353C45.9151 262.603 44.0409 262.145 42.1458 261.999V267.164C44.4157 268.039 46.04 268.788 46.998 269.434C47.9559 270.08 48.664 270.788 49.1013 271.558C49.5387 272.329 49.7677 273.182 49.7677 274.203ZM37.4809 263.874C37.4809 264.394 37.6684 264.811 38.0224 265.144C38.3764 265.477 38.9595 265.81 39.7509 266.164V262.062C38.2306 262.27 37.4809 262.874 37.4809 263.874ZM44.499 274.474C44.499 273.995 44.3115 273.578 43.9159 273.224C43.5202 272.891 42.9371 272.537 42.1249 272.183V276.535C43.7076 276.265 44.499 275.577 44.499 274.474Z" fill="white"/>
<defs>
<linearGradient id="paint0_linear_152_7932" x1="263.607" y1="218.538" x2="362.787" y2="375.506" gradientUnits="userSpaceOnUse">
<stop stop-color="#FFB459"/>
<stop offset="1" stop-color="#FFD378"/>
</linearGradient>
<linearGradient id="paint1_linear_152_7932" x1="95.0155" y1="111.548" x2="245.693" y2="111.548" gradientUnits="userSpaceOnUse">
<stop stop-color="#4881E8"/>
<stop offset="1" stop-color="#FF5EAB" stop-opacity="0"/>
</linearGradient>
<linearGradient id="paint2_linear_152_7932" x1="134.743" y1="136.934" x2="264.064" y2="136.934" gradientUnits="userSpaceOnUse">
<stop stop-color="#4881E8"/>
<stop offset="1" stop-color="#FF5EAB" stop-opacity="0"/>
</linearGradient>
<linearGradient id="paint3_linear_152_7932" x1="387.663" y1="106.766" x2="272.865" y2="191.888" gradientUnits="userSpaceOnUse">
<stop offset="0.00014468" stop-color="#FFE1A6"/>
<stop offset="1" stop-color="#FF5EAB"/>
</linearGradient>
<linearGradient id="paint4_linear_152_7932" x1="454.356" y1="245.381" x2="551.724" y2="178.87" gradientUnits="userSpaceOnUse">
<stop stop-color="#4881E8"/>
<stop offset="1" stop-color="#FF5EAB" stop-opacity="0"/>
</linearGradient>
<linearGradient id="paint5_linear_152_7932" x1="310.091" y1="422.981" x2="377.739" y2="437.624" gradientUnits="userSpaceOnUse">
<stop stop-color="#DE6262"/>
<stop offset="0.9222" stop-color="#DE8383"/>
</linearGradient>
<linearGradient id="paint6_linear_152_7932" x1="457.595" y1="251.142" x2="564.578" y2="251.142" gradientUnits="userSpaceOnUse">
<stop stop-color="#4881E8"/>
<stop offset="1" stop-color="#FF5EAB" stop-opacity="0"/>
</linearGradient>
</defs>
</svg>
